<mxfile host="app.diagrams.net" modified="2023-11-08T03:35:22.317Z" agent="Mozilla/5.0 (Windows NT 10.0; Win64; x64) AppleWebKit/537.36 (KHTML, like Gecko) Chrome/119.0.0.0 Safari/537.36" etag="1-YB90VmUlB2KAHAFn1V" version="22.0.8" type="github">
  <diagram name="Page-1" id="tfqDECZpfWIn1lby5DGq">
    <mxGraphModel dx="2269" dy="1434" grid="1" gridSize="10" guides="1" tooltips="1" connect="1" arrows="1" fold="1" page="1" pageScale="1" pageWidth="850" pageHeight="1100" math="0" shadow="0">
      <root>
        <mxCell id="0" />
        <mxCell id="1" parent="0" />
        <mxCell id="6kf4F4Apf_P60S5-jpUP-13" value="&lt;font style=&quot;font-size: 30px;&quot;&gt;STAR&lt;/font&gt;" style="ellipse;whiteSpace=wrap;html=1;" vertex="1" parent="1">
          <mxGeometry x="320" y="10" width="120" height="80" as="geometry" />
        </mxCell>
        <mxCell id="6kf4F4Apf_P60S5-jpUP-15" value="" style="endArrow=classic;html=1;rounded=0;" edge="1" parent="1" source="6kf4F4Apf_P60S5-jpUP-13">
          <mxGeometry width="50" height="50" relative="1" as="geometry">
            <mxPoint x="380" y="140" as="sourcePoint" />
            <mxPoint x="380" y="160.71067811865476" as="targetPoint" />
          </mxGeometry>
        </mxCell>
        <mxCell id="6kf4F4Apf_P60S5-jpUP-16" value="&lt;font style=&quot;font-size: 18px;&quot;&gt;nama pembeli&lt;/font&gt;" style="shape=parallelogram;perimeter=parallelogramPerimeter;whiteSpace=wrap;html=1;fixedSize=1;" vertex="1" parent="1">
          <mxGeometry x="295" y="170" width="170" height="60" as="geometry" />
        </mxCell>
        <mxCell id="6kf4F4Apf_P60S5-jpUP-18" value="" style="endArrow=classic;html=1;rounded=0;" edge="1" parent="1" source="6kf4F4Apf_P60S5-jpUP-16">
          <mxGeometry width="50" height="50" relative="1" as="geometry">
            <mxPoint x="380" y="290" as="sourcePoint" />
            <mxPoint x="380" y="310.71067811865476" as="targetPoint" />
          </mxGeometry>
        </mxCell>
        <mxCell id="6kf4F4Apf_P60S5-jpUP-142" value="" style="edgeStyle=orthogonalEdgeStyle;rounded=0;orthogonalLoop=1;jettySize=auto;html=1;" edge="1" parent="1" source="6kf4F4Apf_P60S5-jpUP-19" target="6kf4F4Apf_P60S5-jpUP-141">
          <mxGeometry relative="1" as="geometry" />
        </mxCell>
        <mxCell id="6kf4F4Apf_P60S5-jpUP-19" value="&lt;span style=&quot;font-size: 16px;&quot;&gt;no hp pembeli&lt;/span&gt;" style="shape=parallelogram;perimeter=parallelogramPerimeter;whiteSpace=wrap;html=1;fixedSize=1;" vertex="1" parent="1">
          <mxGeometry x="280" y="310" width="200" height="60" as="geometry" />
        </mxCell>
        <mxCell id="6kf4F4Apf_P60S5-jpUP-144" value="" style="edgeStyle=orthogonalEdgeStyle;rounded=0;orthogonalLoop=1;jettySize=auto;html=1;" edge="1" parent="1" source="6kf4F4Apf_P60S5-jpUP-141" target="6kf4F4Apf_P60S5-jpUP-143">
          <mxGeometry relative="1" as="geometry" />
        </mxCell>
        <mxCell id="6kf4F4Apf_P60S5-jpUP-141" value="&lt;span style=&quot;font-size: 16px;&quot;&gt;pesan menu&lt;/span&gt;" style="shape=parallelogram;perimeter=parallelogramPerimeter;whiteSpace=wrap;html=1;fixedSize=1;" vertex="1" parent="1">
          <mxGeometry x="280" y="450" width="200" height="60" as="geometry" />
        </mxCell>
        <mxCell id="6kf4F4Apf_P60S5-jpUP-146" value="" style="edgeStyle=orthogonalEdgeStyle;rounded=0;orthogonalLoop=1;jettySize=auto;html=1;" edge="1" parent="1" source="6kf4F4Apf_P60S5-jpUP-143" target="6kf4F4Apf_P60S5-jpUP-145">
          <mxGeometry relative="1" as="geometry" />
        </mxCell>
        <mxCell id="6kf4F4Apf_P60S5-jpUP-161" value="true" style="edgeLabel;html=1;align=center;verticalAlign=middle;resizable=0;points=[];" vertex="1" connectable="0" parent="6kf4F4Apf_P60S5-jpUP-146">
          <mxGeometry x="-0.2863" y="-5" relative="1" as="geometry">
            <mxPoint as="offset" />
          </mxGeometry>
        </mxCell>
        <mxCell id="6kf4F4Apf_P60S5-jpUP-163" value="false" style="edgeStyle=orthogonalEdgeStyle;rounded=0;orthogonalLoop=1;jettySize=auto;html=1;" edge="1" parent="1" source="6kf4F4Apf_P60S5-jpUP-143" target="6kf4F4Apf_P60S5-jpUP-162">
          <mxGeometry relative="1" as="geometry" />
        </mxCell>
        <mxCell id="6kf4F4Apf_P60S5-jpUP-143" value="makanan" style="rhombus;whiteSpace=wrap;html=1;" vertex="1" parent="1">
          <mxGeometry x="315" y="570" width="130" height="80" as="geometry" />
        </mxCell>
        <mxCell id="6kf4F4Apf_P60S5-jpUP-148" value="" style="edgeStyle=orthogonalEdgeStyle;rounded=0;orthogonalLoop=1;jettySize=auto;html=1;" edge="1" parent="1" source="6kf4F4Apf_P60S5-jpUP-145" target="6kf4F4Apf_P60S5-jpUP-147">
          <mxGeometry relative="1" as="geometry" />
        </mxCell>
        <mxCell id="6kf4F4Apf_P60S5-jpUP-145" value="menampilkan daftar" style="whiteSpace=wrap;html=1;" vertex="1" parent="1">
          <mxGeometry x="110" y="580" width="120" height="60" as="geometry" />
        </mxCell>
        <mxCell id="6kf4F4Apf_P60S5-jpUP-150" value="false" style="edgeStyle=orthogonalEdgeStyle;rounded=0;orthogonalLoop=1;jettySize=auto;html=1;" edge="1" parent="1" source="6kf4F4Apf_P60S5-jpUP-147" target="6kf4F4Apf_P60S5-jpUP-149">
          <mxGeometry relative="1" as="geometry" />
        </mxCell>
        <mxCell id="6kf4F4Apf_P60S5-jpUP-156" value="true" style="edgeStyle=orthogonalEdgeStyle;rounded=0;orthogonalLoop=1;jettySize=auto;html=1;" edge="1" parent="1" source="6kf4F4Apf_P60S5-jpUP-147" target="6kf4F4Apf_P60S5-jpUP-155">
          <mxGeometry relative="1" as="geometry" />
        </mxCell>
        <mxCell id="6kf4F4Apf_P60S5-jpUP-147" value="nasi goreng" style="rhombus;whiteSpace=wrap;html=1;" vertex="1" parent="1">
          <mxGeometry x="130" y="710" width="80" height="80" as="geometry" />
        </mxCell>
        <mxCell id="6kf4F4Apf_P60S5-jpUP-152" value="false" style="edgeStyle=orthogonalEdgeStyle;rounded=0;orthogonalLoop=1;jettySize=auto;html=1;" edge="1" parent="1" source="6kf4F4Apf_P60S5-jpUP-149" target="6kf4F4Apf_P60S5-jpUP-151">
          <mxGeometry relative="1" as="geometry" />
        </mxCell>
        <mxCell id="6kf4F4Apf_P60S5-jpUP-158" value="true" style="edgeStyle=orthogonalEdgeStyle;rounded=0;orthogonalLoop=1;jettySize=auto;html=1;" edge="1" parent="1" source="6kf4F4Apf_P60S5-jpUP-149" target="6kf4F4Apf_P60S5-jpUP-157">
          <mxGeometry relative="1" as="geometry" />
        </mxCell>
        <mxCell id="6kf4F4Apf_P60S5-jpUP-149" value="mie goreng" style="rhombus;whiteSpace=wrap;html=1;" vertex="1" parent="1">
          <mxGeometry x="130" y="870" width="80" height="80" as="geometry" />
        </mxCell>
        <mxCell id="6kf4F4Apf_P60S5-jpUP-160" value="true" style="edgeStyle=orthogonalEdgeStyle;rounded=0;orthogonalLoop=1;jettySize=auto;html=1;" edge="1" parent="1" source="6kf4F4Apf_P60S5-jpUP-151" target="6kf4F4Apf_P60S5-jpUP-159">
          <mxGeometry relative="1" as="geometry" />
        </mxCell>
        <mxCell id="6kf4F4Apf_P60S5-jpUP-151" value="ayam geprek" style="rhombus;whiteSpace=wrap;html=1;" vertex="1" parent="1">
          <mxGeometry x="130" y="1030" width="80" height="80" as="geometry" />
        </mxCell>
        <mxCell id="6kf4F4Apf_P60S5-jpUP-182" style="edgeStyle=orthogonalEdgeStyle;rounded=0;orthogonalLoop=1;jettySize=auto;html=1;entryX=0.5;entryY=0;entryDx=0;entryDy=0;" edge="1" parent="1" source="6kf4F4Apf_P60S5-jpUP-155" target="6kf4F4Apf_P60S5-jpUP-177">
          <mxGeometry relative="1" as="geometry" />
        </mxCell>
        <mxCell id="6kf4F4Apf_P60S5-jpUP-155" value="harga 15k" style="whiteSpace=wrap;html=1;" vertex="1" parent="1">
          <mxGeometry x="270" y="720" width="120" height="60" as="geometry" />
        </mxCell>
        <mxCell id="6kf4F4Apf_P60S5-jpUP-184" style="edgeStyle=orthogonalEdgeStyle;rounded=0;orthogonalLoop=1;jettySize=auto;html=1;entryX=0.5;entryY=0;entryDx=0;entryDy=0;" edge="1" parent="1" source="6kf4F4Apf_P60S5-jpUP-157" target="6kf4F4Apf_P60S5-jpUP-177">
          <mxGeometry relative="1" as="geometry" />
        </mxCell>
        <mxCell id="6kf4F4Apf_P60S5-jpUP-157" value="harga 12k" style="whiteSpace=wrap;html=1;" vertex="1" parent="1">
          <mxGeometry x="270" y="880" width="120" height="60" as="geometry" />
        </mxCell>
        <mxCell id="6kf4F4Apf_P60S5-jpUP-185" style="edgeStyle=orthogonalEdgeStyle;rounded=0;orthogonalLoop=1;jettySize=auto;html=1;entryX=0.5;entryY=0;entryDx=0;entryDy=0;" edge="1" parent="1" source="6kf4F4Apf_P60S5-jpUP-159" target="6kf4F4Apf_P60S5-jpUP-177">
          <mxGeometry relative="1" as="geometry" />
        </mxCell>
        <mxCell id="6kf4F4Apf_P60S5-jpUP-159" value="harga 18k" style="whiteSpace=wrap;html=1;" vertex="1" parent="1">
          <mxGeometry x="270" y="1040" width="120" height="60" as="geometry" />
        </mxCell>
        <mxCell id="6kf4F4Apf_P60S5-jpUP-165" value="" style="edgeStyle=orthogonalEdgeStyle;rounded=0;orthogonalLoop=1;jettySize=auto;html=1;" edge="1" parent="1" source="6kf4F4Apf_P60S5-jpUP-162" target="6kf4F4Apf_P60S5-jpUP-164">
          <mxGeometry relative="1" as="geometry" />
        </mxCell>
        <mxCell id="6kf4F4Apf_P60S5-jpUP-162" value="minuman" style="whiteSpace=wrap;html=1;" vertex="1" parent="1">
          <mxGeometry x="530" y="580" width="120" height="60" as="geometry" />
        </mxCell>
        <mxCell id="6kf4F4Apf_P60S5-jpUP-167" value="false" style="edgeStyle=orthogonalEdgeStyle;rounded=0;orthogonalLoop=1;jettySize=auto;html=1;" edge="1" parent="1" source="6kf4F4Apf_P60S5-jpUP-164" target="6kf4F4Apf_P60S5-jpUP-166">
          <mxGeometry relative="1" as="geometry" />
        </mxCell>
        <mxCell id="6kf4F4Apf_P60S5-jpUP-171" value="" style="edgeStyle=orthogonalEdgeStyle;rounded=0;orthogonalLoop=1;jettySize=auto;html=1;" edge="1" parent="1" source="6kf4F4Apf_P60S5-jpUP-164" target="6kf4F4Apf_P60S5-jpUP-170">
          <mxGeometry relative="1" as="geometry" />
        </mxCell>
        <mxCell id="6kf4F4Apf_P60S5-jpUP-176" value="true" style="edgeLabel;html=1;align=center;verticalAlign=middle;resizable=0;points=[];" vertex="1" connectable="0" parent="6kf4F4Apf_P60S5-jpUP-171">
          <mxGeometry y="-2" relative="1" as="geometry">
            <mxPoint as="offset" />
          </mxGeometry>
        </mxCell>
        <mxCell id="6kf4F4Apf_P60S5-jpUP-164" value="aneka jus" style="rhombus;whiteSpace=wrap;html=1;" vertex="1" parent="1">
          <mxGeometry x="770" y="710" width="80" height="80" as="geometry" />
        </mxCell>
        <mxCell id="6kf4F4Apf_P60S5-jpUP-169" value="false" style="edgeStyle=orthogonalEdgeStyle;rounded=0;orthogonalLoop=1;jettySize=auto;html=1;" edge="1" parent="1" source="6kf4F4Apf_P60S5-jpUP-172" target="6kf4F4Apf_P60S5-jpUP-168">
          <mxGeometry relative="1" as="geometry" />
        </mxCell>
        <mxCell id="6kf4F4Apf_P60S5-jpUP-173" value="true" style="edgeStyle=orthogonalEdgeStyle;rounded=0;orthogonalLoop=1;jettySize=auto;html=1;" edge="1" parent="1" source="6kf4F4Apf_P60S5-jpUP-166" target="6kf4F4Apf_P60S5-jpUP-172">
          <mxGeometry relative="1" as="geometry" />
        </mxCell>
        <mxCell id="6kf4F4Apf_P60S5-jpUP-166" value="soft drink" style="rhombus;whiteSpace=wrap;html=1;" vertex="1" parent="1">
          <mxGeometry x="770" y="870" width="80" height="80" as="geometry" />
        </mxCell>
        <mxCell id="6kf4F4Apf_P60S5-jpUP-175" value="true" style="edgeStyle=orthogonalEdgeStyle;rounded=0;orthogonalLoop=1;jettySize=auto;html=1;" edge="1" parent="1" source="6kf4F4Apf_P60S5-jpUP-168" target="6kf4F4Apf_P60S5-jpUP-174">
          <mxGeometry relative="1" as="geometry" />
        </mxCell>
        <mxCell id="6kf4F4Apf_P60S5-jpUP-168" value="sweet ice tea" style="rhombus;whiteSpace=wrap;html=1;" vertex="1" parent="1">
          <mxGeometry x="770" y="1010" width="80" height="80" as="geometry" />
        </mxCell>
        <mxCell id="6kf4F4Apf_P60S5-jpUP-194" style="edgeStyle=orthogonalEdgeStyle;rounded=0;orthogonalLoop=1;jettySize=auto;html=1;" edge="1" parent="1" source="6kf4F4Apf_P60S5-jpUP-170">
          <mxGeometry relative="1" as="geometry">
            <mxPoint x="500" y="1160" as="targetPoint" />
          </mxGeometry>
        </mxCell>
        <mxCell id="6kf4F4Apf_P60S5-jpUP-170" value="harga 15k" style="whiteSpace=wrap;html=1;" vertex="1" parent="1">
          <mxGeometry x="540" y="740" width="120" height="60" as="geometry" />
        </mxCell>
        <mxCell id="6kf4F4Apf_P60S5-jpUP-196" style="edgeStyle=orthogonalEdgeStyle;rounded=0;orthogonalLoop=1;jettySize=auto;html=1;" edge="1" parent="1" source="6kf4F4Apf_P60S5-jpUP-174">
          <mxGeometry relative="1" as="geometry">
            <mxPoint x="510" y="1160" as="targetPoint" />
          </mxGeometry>
        </mxCell>
        <mxCell id="6kf4F4Apf_P60S5-jpUP-174" value="harga 5k" style="whiteSpace=wrap;html=1;" vertex="1" parent="1">
          <mxGeometry x="560" y="1020" width="120" height="60" as="geometry" />
        </mxCell>
        <mxCell id="6kf4F4Apf_P60S5-jpUP-179" value="" style="edgeStyle=orthogonalEdgeStyle;rounded=0;orthogonalLoop=1;jettySize=auto;html=1;" edge="1" parent="1" source="6kf4F4Apf_P60S5-jpUP-177" target="6kf4F4Apf_P60S5-jpUP-178">
          <mxGeometry relative="1" as="geometry" />
        </mxCell>
        <mxCell id="6kf4F4Apf_P60S5-jpUP-177" value="jumlah pesana" style="rounded=0;whiteSpace=wrap;html=1;" vertex="1" parent="1">
          <mxGeometry x="445" y="1180" width="120" height="60" as="geometry" />
        </mxCell>
        <mxCell id="6kf4F4Apf_P60S5-jpUP-181" value="" style="edgeStyle=orthogonalEdgeStyle;rounded=0;orthogonalLoop=1;jettySize=auto;html=1;" edge="1" parent="1" source="6kf4F4Apf_P60S5-jpUP-178" target="6kf4F4Apf_P60S5-jpUP-180">
          <mxGeometry relative="1" as="geometry" />
        </mxCell>
        <mxCell id="6kf4F4Apf_P60S5-jpUP-178" value="jumlah pesana harga" style="rounded=0;whiteSpace=wrap;html=1;" vertex="1" parent="1">
          <mxGeometry x="445" y="1320" width="120" height="60" as="geometry" />
        </mxCell>
        <mxCell id="6kf4F4Apf_P60S5-jpUP-180" value="&lt;font style=&quot;font-size: 31px;&quot;&gt;end&lt;/font&gt;" style="ellipse;whiteSpace=wrap;html=1;rounded=0;" vertex="1" parent="1">
          <mxGeometry x="427.5" y="1450" width="155" height="80" as="geometry" />
        </mxCell>
        <mxCell id="6kf4F4Apf_P60S5-jpUP-189" value="" style="edgeStyle=orthogonalEdgeStyle;rounded=0;orthogonalLoop=1;jettySize=auto;html=1;" edge="1" parent="1" source="6kf4F4Apf_P60S5-jpUP-166" target="6kf4F4Apf_P60S5-jpUP-172">
          <mxGeometry relative="1" as="geometry">
            <mxPoint x="830" y="910" as="sourcePoint" />
            <mxPoint x="590" y="1030" as="targetPoint" />
          </mxGeometry>
        </mxCell>
        <mxCell id="6kf4F4Apf_P60S5-jpUP-195" style="edgeStyle=orthogonalEdgeStyle;rounded=0;orthogonalLoop=1;jettySize=auto;html=1;" edge="1" parent="1" source="6kf4F4Apf_P60S5-jpUP-172">
          <mxGeometry relative="1" as="geometry">
            <mxPoint x="500" y="1160" as="targetPoint" />
          </mxGeometry>
        </mxCell>
        <mxCell id="6kf4F4Apf_P60S5-jpUP-172" value="harga 10k" style="whiteSpace=wrap;html=1;" vertex="1" parent="1">
          <mxGeometry x="550" y="880" width="120" height="60" as="geometry" />
        </mxCell>
      </root>
    </mxGraphModel>
  </diagram>
</mxfile>
